<svg xmlns="http://www.w3.org/2000/svg" width="419.1449890136719" height="403.6050109863281"><rect id="backgroundrect" width="100%" height="100%" x="0" y="0" fill="none" stroke="none"/>
 <title>Black Paws</title>
 <metadata id="metadata1655">image/svg+xml</metadata>
 <g style="" class="currentLayer">
  <title>Layer 1</title>
  <g transform="rotate(28.245100021362305 99.54620361328121,174.54534912109375) " id="svg_3" class="" fill-opacity="1" fill="#4fc3f7">
   <path d="m107.195999,152.845993c-0.094002,0.001007 -0.190002,0.006012 -0.284996,0.013c-3.795006,0.665009 -5.882004,4.738007 -6.184006,8.330002c-0.441994,3.26001 0.973,7.449005 4.499001,8.179001c0.512001,0.098999 1.042999,0.054001 1.542999,-0.084c4.245003,-1.444992 6.145004,-6.548996 5.532005,-10.776001c-0.179001,-2.731003 -2.206001,-5.699997 -5.105003,-5.662003zm-16.089302,0.175003c-2.359695,0.057999 -4.197899,2.488007 -4.5718,4.771011c-0.7883,4.523987 1.239304,10.145996 5.882805,11.575989c0.434898,0.096008 0.884796,0.106003 1.324196,0.037003c3.138504,-0.531006 4.468102,-4.102005 4.3368,-6.985992c-0.094498,-3.803009 -2.041,-8.201004 -5.932495,-9.271011c-0.355705,-0.095993 -0.7024,-0.136002 -1.039505,-0.126999zm26.3713,12.848999c-4.081993,0.248001 -6.879997,4.383011 -7.278999,8.243011c-0.541,2.783997 0.922005,6.508987 4.052002,6.730988c4.363998,-0.054993 7.341003,-4.787994 7.465004,-8.860992c0.275993,-2.694 -1.287003,-5.964005 -4.238007,-6.113007zm-35.730194,0.917999c-1.736702,-0.015991 -3.444801,1.040009 -4.012306,2.832001c-1.514099,4.794006 1.526405,10.865005 6.528305,11.872009c2.087601,0.362991 3.921898,-1.264008 4.439499,-3.222c1.096901,-4.188004 -1.156097,-9.050003 -4.969101,-10.951004c-0.621201,-0.354004 -1.306801,-0.524994 -1.986397,-0.531006zm18.300194,8.595001c-3.404297,0.008011 -6.862396,1.761002 -9.067093,4.372009c-2.381203,3.042999 -4.331802,6.584 -5.094902,10.423996c-0.927101,2.763992 1.174202,5.944992 4.085197,5.964005c3.502197,0.098999 6.512001,-2.34201 9.994499,-2.52301c2.9543,-0.457993 5.600304,1.102005 8.256302,2.123001c2.262001,0.98201 5.387001,0.606003 6.542,-1.86499c0.907997,-2.518005 -0.429001,-5.203003 -1.536003,-7.439011c-2.258995,-3.62999 -4.678993,-7.444992 -8.382996,-9.71199c-1.484001,-0.934006 -3.134003,-1.347 -4.797005,-1.344009z" fill="#4fc3f7" id="svg_4"/>
  </g>
  <g transform="rotate(28.245100021362305 154.38200378417972,91.06749725341798) " id="svg_7" class="" fill="#4fc3f7" fill-opacity="1">
   <path d="m162.031998,69.367897c-0.093994,0.001205 -0.190002,0.005905 -0.285004,0.013405c-3.794998,0.664902 -5.881989,4.738297 -6.18399,8.3302c-0.442001,3.259399 0.972992,7.4487 4.498993,8.179001c0.511002,0.098801 1.042999,0.053696 1.542999,-0.084c4.24501,-1.445 6.145004,-6.548904 5.531998,-10.776505c-0.179001,-2.7304 -2.207001,-5.6996 -5.104996,-5.662102zm-16.089005,0.174706c-2.360001,0.0588 -4.197998,2.488098 -4.571991,4.771698c-0.789001,4.5242 1.238998,10.145599 5.882004,11.576202c0.434998,0.096001 0.884995,0.105896 1.324997,0.036995c3.138,-0.530899 4.468002,-4.102699 4.335999,-6.986099c-0.093994,-3.803596 -2.040009,-8.201599 -5.932007,-9.271095c-0.355988,-0.095703 -0.701996,-0.136101 -1.039001,-0.127701zm26.371002,12.8498c-4.082001,0.247894 -6.880997,4.382294 -7.279999,8.242798c-0.539993,2.784401 0.921997,6.508499 4.052002,6.730698c4.365005,-0.054596 7.341995,-4.788101 7.466003,-8.861099c0.276001,-2.693703 -1.287994,-5.9636 -4.238007,-6.112396zm-35.729996,0.917397c-1.737,-0.015198 -3.444992,1.040703 -4.013,2.832703c-1.513992,4.793594 1.527008,10.864601 6.529007,11.872002c2.08699,0.362595 3.92099,-1.264702 4.438995,-3.222603c1.097,-4.187698 -1.156006,-9.050201 -4.968994,-10.951202c-0.621002,-0.353897 -1.307007,-0.525002 -1.986008,-0.530899zm18.300003,8.595703c-3.404007,0.007301 -6.863007,1.761101 -9.067001,4.371696c-2.380997,3.042801 -4.332001,6.583801 -5.095001,10.423798c-0.927002,2.764 1.173996,5.945007 4.085007,5.964005c3.501999,0.098999 6.511993,-2.342003 9.993988,-2.523003c2.955002,-0.457001 5.600998,1.103004 8.257004,2.124001c2.262009,0.981003 5.387009,0.605003 6.542007,-1.864998c0.90799,-2.518997 -0.429001,-5.204002 -1.537003,-7.440002c-2.258011,-3.629997 -4.678009,-7.445099 -8.382004,-9.711395c-1.483994,-0.934006 -3.134003,-1.347801 -4.796997,-1.344101z" fill="#4fc3f7" id="svg_8" fill-opacity="1"/>
  </g>
  <g transform="rotate(28.245100021362305 163.38198852539068,159.06750488281247) " id="svg_9" class="" fill-opacity="1" fill="#4fc3f7">
   <path d="m171.031998,137.367996c-0.093994,0.001007 -0.190002,0.005997 -0.285004,0.013c-3.794998,0.665009 -5.881989,4.738998 -6.18399,8.331009c-0.442001,3.258987 0.972992,7.447998 4.498993,8.179001c0.511002,0.097992 1.042999,0.052994 1.542999,-0.084c4.24501,-1.446014 6.145004,-6.549011 5.531998,-10.777008c-0.179001,-2.729996 -2.207001,-5.699997 -5.104996,-5.662003zm-16.089005,0.175003c-2.360001,0.057999 -4.197998,2.488007 -4.571991,4.770996c-0.789001,4.525009 1.238998,10.146011 5.882004,11.577011c0.434998,0.095993 0.884995,0.104996 1.324997,0.035995c3.138,-0.529999 4.468002,-4.102005 4.335999,-6.986008c-0.093994,-3.802994 -2.040009,-8.200989 -5.932007,-9.270996c-0.355988,-0.095001 -0.701996,-0.136002 -1.039001,-0.126999zm26.371002,12.848999c-4.082001,0.248001 -6.880997,4.382996 -7.279999,8.242996c-0.539993,2.785004 0.921997,6.509003 4.052002,6.731003c4.365005,-0.054993 7.341995,-4.787994 7.466003,-8.860992c0.276001,-2.694 -1.287994,-5.964005 -4.238007,-6.113007zm-35.729996,0.917999c-1.737,-0.014999 -3.444992,1.041 -4.013,2.833008c-1.513992,4.792999 1.527008,10.863998 6.529007,11.871002c2.08699,0.362991 3.92099,-1.264008 4.438995,-3.222c1.097,-4.188004 -1.156006,-9.050003 -4.968994,-10.951004c-0.621002,-0.354004 -1.307007,-0.525009 -1.986008,-0.531006zm18.300003,8.595001c-3.404007,0.007996 -6.863007,1.762009 -9.067001,4.371994c-2.380997,3.043015 -4.332001,6.584 -5.095001,10.424011c-0.927002,2.763992 1.173996,5.944992 4.085007,5.963989c3.501999,0.099014 6.511993,-2.341995 9.993988,-2.522995c2.955002,-0.457001 5.600998,1.102997 8.257004,2.124008c2.262009,0.980988 5.387009,0.604996 6.542007,-1.865005c0.90799,-2.518997 -0.429001,-5.203995 -1.537003,-7.440002c-2.258011,-3.630005 -4.678009,-7.444992 -8.382004,-9.710999c-1.483994,-0.934006 -3.134003,-1.348007 -4.796997,-1.345001z" fill="#4fc3f7" id="svg_10"/>
  </g>
  <g transform="rotate(28.245100021362305 115.8549957275392,245.3948974609375) " id="svg_11" class="selected" fill-opacity="1" fill="#4fc3f7">
   <path d="m123.504997,223.695313c-0.093994,0.001221 -0.190002,0.005905 -0.285004,0.013412c-3.794998,0.664902 -5.881989,4.738297 -6.18399,8.3302c-0.442001,3.259399 0.972992,7.4487 4.498993,8.179001c0.511002,0.098801 1.042999,0.053696 1.542999,-0.084c4.245003,-1.445007 6.144997,-6.548904 5.53199,-10.776505c-0.178986,-2.730392 -2.206993,-5.6996 -5.104988,-5.662109zm-16.089005,0.174713c-2.360001,0.058807 -4.197998,2.488098 -4.571991,4.771698c-0.789001,4.5242 1.238998,10.145599 5.882004,11.576202c0.434998,0.095993 0.884995,0.105896 1.324997,0.036987c3.138,-0.530884 4.468002,-4.102692 4.335999,-6.986084c-0.093994,-3.803604 -2.040009,-8.201599 -5.932007,-9.271103c-0.355988,-0.095703 -0.701996,-0.136093 -1.039001,-0.127701zm26.370995,12.849792c-4.082001,0.247894 -6.880989,4.382309 -7.279991,8.242798c-0.539993,2.784409 0.921989,6.508499 4.051994,6.730698c4.365021,-0.054596 7.34201,-4.788101 7.466003,-8.861099c0.276001,-2.693695 -1.287994,-5.963593 -4.238007,-6.112396zm-35.729988,0.917404c-1.737,-0.015198 -3.444992,1.040695 -4.013,2.832703c-1.513992,4.793594 1.527008,10.864594 6.529007,11.871994c2.08699,0.362595 3.92099,-1.264694 4.438995,-3.222595c1.097,-4.187698 -1.156006,-9.050201 -4.968994,-10.951202c-0.621002,-0.353897 -1.307007,-0.525009 -1.986008,-0.530899zm18.300003,8.595703c-3.404007,0.007309 -6.863007,1.761093 -9.067001,4.371689c-2.380997,3.042801 -4.332001,6.583801 -5.095001,10.423798c-0.927002,2.764008 1.173996,5.945007 4.085007,5.96402c3.501999,0.098999 6.511993,-2.34201 9.993988,-2.52301c2.955002,-0.457001 5.600998,1.102997 8.257004,2.123993c2.262009,0.981018 5.387001,0.605011 6.542,-1.86499c0.90799,-2.519012 -0.428986,-5.20401 -1.536987,-7.440002c-2.258026,-3.630005 -4.678017,-7.445099 -8.382011,-9.711395c-1.483994,-0.934006 -3.134003,-1.347809 -4.796997,-1.344101z" fill="#4fc3f7" id="svg_12"/>
  </g>
 </g>
</svg>