<?xml version="1.0" encoding="iso-8859-1"?>
<!-- Generator: Adobe Illustrator 19.0.0, SVG Export Plug-In . SVG Version: 6.00 Build 0)  -->
<svg version="1.1" id="Capa_1" xmlns="http://www.w3.org/2000/svg" xmlns:xlink="http://www.w3.org/1999/xlink" x="0px" y="0px"
	 viewBox="0 0 512 512" style="enable-background:new 0 0 512 512;" xml:space="preserve">
<path style="fill:#FE318F;" d="M234.402,383.796L111.406,507.488c-2.699,3.001-6.599,4.501-10.499,4.501c-2.1,0-3.9-0.3-5.7-1.201
	c-5.7-2.399-9.2-7.798-9.2-13.798v-69.997H15.011c-6,0-11.4-4.5-13.8-10.2c-2.399-5.4-1.199-12,3.301-16.198l101.796-101.096
	c6-5.7,15.299-5.7,21.298,0l53.999,31.799l52.798,31.198C240.099,368.495,240.099,377.795,234.402,383.796z"/>
<path style="fill:#FD0F7F;" d="M234.402,383.796L111.406,507.488c-2.699,3.001-6.599,4.501-10.499,4.501c-2.1,0-3.9-0.3-5.7-1.201
	c-5.7-2.399-9.2-7.798-9.2-13.798v-69.997l86.895-87.897l8.701-7.798l52.798,31.198
	C240.099,368.495,240.099,377.795,234.402,383.796z"/>
<path style="fill:#FE318F;" d="M510.79,416.793c-2.401,5.7-7.8,9.2-13.8,9.2h-70.997v70.997c0,6-3.5,11.4-9.2,13.798
	c-1.8,0.901-3.6,1.201-5.7,1.201c-3.9,0-7.8-1.5-10.499-4.501L277.598,383.796l64.197-41.999l63.897-42.297l101.796,101.096
	C511.989,404.793,513.189,411.393,510.79,416.793z"/>
<path style="fill:#FD0F7F;" d="M425.992,425.993v70.997c0,6-3.5,11.4-9.2,13.798c-1.8,0.901-3.6,1.201-5.7,1.201
	c-3.9,0-7.8-1.5-10.499-4.501L277.598,383.796l64.197-41.999L425.992,425.993z"/>
<path style="fill:#FEA832;" d="M256,0.011h-0.3C148.303,0.311,61.008,88.606,61.008,196.003
	c0,107.394,87.295,194.692,194.692,194.992h0.3c107.396,0,194.992-87.597,194.992-194.992C450.991,88.607,363.396,0.011,256,0.011z"
	/>
<path style="fill:#FE9923;" d="M450.991,196.003c0,107.394-87.595,194.992-194.992,194.992h-0.3V0.011h0.3
	C363.396,0.011,450.991,88.607,450.991,196.003z"/>
<path style="fill:#FCBF29;" d="M364.013,210.988c-16.365,0-30.115-13.196-30.068-29.999c0.047-16.824,13.745-29.999,29.892-29.999
	c17.037,0,30.106,13.806,30.091,29.999C393.913,197.525,380.611,210.988,364.013,210.988z"/>
<g>
	<path style="fill:#FEDB41;" d="M148.192,150.991c-16.772,0-30.156,13.587-30.123,29.999c0.034,16.74,13.563,29.999,29.903,29.999
		c16.46,0,30.118-13.296,30.077-29.999C178.008,164.034,164.2,150.991,148.192,150.991z"/>
	<path style="fill:#FEDB41;" d="M256,151.005h-0.3c-41.398,0.3-74.697,33.599-74.697,74.997s33.299,74.697,74.697,74.997h0.3
		c41.398,0,74.997-33.599,74.997-74.997S297.398,151.005,256,151.005z"/>
</g>
<g>
	<path style="fill:#FCBF29;" d="M330.996,226.001c0,41.398-33.599,74.997-74.997,74.997h-0.3V151.005h0.3
		C297.398,151.005,330.996,184.603,330.996,226.001z"/>
	<path style="fill:#FCBF29;" d="M300.998,151.005c-16.537,0-29.999-13.461-29.999-29.999s13.461-29.999,29.999-29.999
		c16.537,0,29.999,13.461,29.999,29.999S317.535,151.005,300.998,151.005z"/>
</g>
<path style="fill:#FEDB41;" d="M211.002,151.005c-16.537,0-29.999-13.461-29.999-29.999s13.461-29.999,29.999-29.999
	S241,104.469,241,121.006S227.539,151.005,211.002,151.005z"/>
<g>
</g>
<g>
</g>
<g>
</g>
<g>
</g>
<g>
</g>
<g>
</g>
<g>
</g>
<g>
</g>
<g>
</g>
<g>
</g>
<g>
</g>
<g>
</g>
<g>
</g>
<g>
</g>
<g>
</g>
</svg>
